<svg xmlns="http://www.w3.org/2000/svg" width="200.528" height="77.216" viewBox="0 0 200.528 77.216">
  <g id="balloon-css-logo" transform="translate(-547 -131.402)">
    <g id="balloon" transform="translate(592.094 131.402)">
      <path id="Fill-72" d="M22.637,32.819c-1.872-3.465-3.994-7.393-3.994-12.7,0-11.192,7.709-13.928,8.038-14.039a.813.813,0,0,1,.266-.035V6.032C19.724,6.458,12,12.342,12,20.121c0,7.057,4.1,11.158,7.393,14.453,2,2,3.725,3.726,4.261,5.695a.83.83,0,0,0,.8.611h.83v-.829c0-2.33-1.227-4.6-2.649-7.232" transform="translate(-12 -6.032)" fill="#212121" fill-rule="evenodd"/>
      <path id="Fill-74" d="M38.546,34.625c3.289-3.3,7.383-7.4,7.383-14.5,0-7.78-7.724-13.664-14.946-14.089v.017a.8.8,0,0,1,.259.032c.329.107,8.044,2.775,8.044,14.041,0,5.3-2.122,9.232-3.995,12.7-1.4,2.588-2.6,4.829-2.641,7.119L31.94,44.2H28.364l-.715-4.29a.83.83,0,1,0-1.638.273l.674,4.045a.819.819,0,0,0-.685.8v4.152a1.662,1.662,0,0,0,1.661,1.661h4.982A1.662,1.662,0,0,0,34.3,49.184V45.032a.819.819,0,0,0-.686-.8l.663-3.973c.6-1.958,2.3-3.662,4.266-5.633" transform="translate(-14.375 -6.032)" fill="#212121" fill-rule="evenodd"/>
    </g>
    <g id="text" transform="translate(460.092 -129.786)">
      <path id="Path_2" data-name="Path 2" d="M109.827,330.081a7.969,7.969,0,0,1-2.153,5.555q-2.153,2.358-6.744,2.358H86.908V333.32h2.87v-17.3h-2.87v-4.675h13.858a9.467,9.467,0,0,1,5.883,1.7,5.412,5.412,0,0,1,2.235,4.531,5.608,5.608,0,0,1-1.271,3.649,5.545,5.545,0,0,1-3.568,1.927v.164a6.394,6.394,0,0,1,4.326,2.255A7.056,7.056,0,0,1,109.827,330.081Zm-6.848-11.071a2.484,2.484,0,0,0-1.086-2.4,5.265,5.265,0,0,0-2.562-.594h-4.06v6.232H98.92a4.256,4.256,0,0,0,3.2-.943A3.287,3.287,0,0,0,102.979,319.01Zm.943,10.865q0-3.361-4.058-3.362H95.271v6.807H99.5Q103.923,333.32,103.922,329.875Z" fill="#212121"/>
      <path id="Path_3" data-name="Path 3" d="M113.6,320.815a25.276,25.276,0,0,1,4.038-1.333,18.683,18.683,0,0,1,3.875-.349,8.633,8.633,0,0,1,5.166,1.559,5.419,5.419,0,0,1,2.173,4.715v8.036q0,1.436,1.271,1.434a2.7,2.7,0,0,0,.778-.123l.041,2.788a6.9,6.9,0,0,1-3.32.862,3.661,3.661,0,0,1-4.059-3.65v-.041a8.6,8.6,0,0,1-2.235,2.542,5.806,5.806,0,0,1-3.71,1.149,7.008,7.008,0,0,1-3.854-1.19,4.5,4.5,0,0,1-1.846-4.1q0-3.4,2.727-4.51a15.484,15.484,0,0,1,5.883-1.107,24.21,24.21,0,0,1,3.035.164v-.616a10.024,10.024,0,0,0-.39-2.788q-.39-1.352-2.645-1.352a10.071,10.071,0,0,0-1.5.1,4.461,4.461,0,0,0-1.332.431l-.7,2.624-4.223-.451Zm9.963,9.635V330.2q-.657-.083-1.333-.164a11.007,11.007,0,0,0-1.333-.082,5.6,5.6,0,0,0-2.459.512,2.028,2.028,0,0,0-1.066,2.03,2.357,2.357,0,0,0,.491,1.517,2.038,2.038,0,0,0,1.681.614,4,4,0,0,0,2.6-1A4.484,4.484,0,0,0,123.562,330.45Z" fill="#212121"/>
      <path id="Path_4" data-name="Path 4" d="M142.5,337.994H132.294v-3.977h2.46V313.8h-2.665v-4.017h7.954v24.231h2.46Z" fill="#212121"/>
      <path id="Path_5" data-name="Path 5" d="M154.187,337.994H143.979v-3.977h2.46V313.8h-2.665v-4.017h7.954v24.231h2.459Z" fill="#212121"/>
      <path id="Path_6" data-name="Path 6" d="M175.548,328.769a9.038,9.038,0,0,1-2.87,7.011,10.4,10.4,0,0,1-7.3,2.624,9.83,9.83,0,0,1-6.949-2.481,8.984,8.984,0,0,1-2.686-6.949,10.45,10.45,0,0,1,2.46-6.971q2.46-2.91,7.462-2.911t7.442,2.891A10.2,10.2,0,0,1,175.548,328.769Zm-5.453-.164a5.66,5.66,0,0,0-1.312-4.142,4.354,4.354,0,0,0-3.2-1.311,3.9,3.9,0,0,0-3.218,1.455,6.362,6.362,0,0,0-1.169,4.08,7.11,7.11,0,0,0,1.087,4.018,3.647,3.647,0,0,0,3.259,1.639,4.042,4.042,0,0,0,3.3-1.537A6.476,6.476,0,0,0,170.1,328.605Z" fill="#212121"/>
      <path id="Path_7" data-name="Path 7" d="M196.991,328.769a9.038,9.038,0,0,1-2.87,7.011,10.4,10.4,0,0,1-7.3,2.624,9.83,9.83,0,0,1-6.949-2.481,8.984,8.984,0,0,1-2.686-6.949,10.45,10.45,0,0,1,2.46-6.971q2.46-2.91,7.462-2.911t7.442,2.891A10.2,10.2,0,0,1,196.991,328.769Zm-5.453-.164a5.66,5.66,0,0,0-1.312-4.142,4.354,4.354,0,0,0-3.2-1.311,3.9,3.9,0,0,0-3.218,1.455,6.362,6.362,0,0,0-1.169,4.08,7.11,7.11,0,0,0,1.087,4.018,3.647,3.647,0,0,0,3.259,1.639,4.042,4.042,0,0,0,3.3-1.537A6.476,6.476,0,0,0,191.538,328.605Z" fill="#212121"/>
      <path id="Path_8" data-name="Path 8" d="M221.632,337.994H211.423v-3.977h2.46V327.58a5.61,5.61,0,0,0-.8-3.4,2.809,2.809,0,0,0-2.357-1.024,3.668,3.668,0,0,0-2.911,1.168,4.62,4.62,0,0,0-1.066,3.055v6.642h2.46v3.977H199v-3.977h2.46v-10.5h-2.665V319.5h7.954v2.83a6.345,6.345,0,0,1,5.945-3.2,7.018,7.018,0,0,1,4.551,1.559,5.855,5.855,0,0,1,1.927,4.838v8.487h2.46Z" fill="#212121"/>
      <path id="Path_9" data-name="Path 9" d="M223.641,337.994v-6.683h6.273v6.683Z" fill="#212121"/>
      <path id="Path_10" data-name="Path 10" d="M250.126,331.106a9.556,9.556,0,0,1-2.193,4.92q-1.906,2.377-6.376,2.378a9.535,9.535,0,0,1-6.621-2.337q-2.6-2.338-2.6-7.012,0-4.918,2.829-7.421a9.979,9.979,0,0,1,6.847-2.5,15.047,15.047,0,0,1,3.26.39,13.452,13.452,0,0,1,3.423,1.292l.82,5.617-4.223.45-.615-3.033a9.016,9.016,0,0,0-2.788-.533,3.765,3.765,0,0,0-2.87,1.291,6.1,6.1,0,0,0-1.189,4.2q0,5.41,4.223,5.411,3.116,0,3.649-3.935Z" fill="#212121"/>
      <path id="Path_11" data-name="Path 11" d="M268.617,332.335a5,5,0,0,1-2.44,4.572,11.969,11.969,0,0,1-6.334,1.5,19.416,19.416,0,0,1-4.039-.431,15.561,15.561,0,0,1-3.874-1.373l.738-5.166,4.1.45v2.3a6.426,6.426,0,0,0,1.558.308q.819.061,1.23.061a6.444,6.444,0,0,0,2.624-.491,1.583,1.583,0,0,0,1.107-1.476q0-1.188-1.681-1.558t-3.895-.738a9.6,9.6,0,0,1-3.9-1.517,4.372,4.372,0,0,1-1.681-3.9q0-3.4,2.644-4.572a13.409,13.409,0,0,1,5.474-1.169,14.825,14.825,0,0,1,6.929,1.682l.451,4.715-4.1.451L263.2,323.4a9.142,9.142,0,0,0-2.911-.451,3.327,3.327,0,0,0-1.743.43,1.448,1.448,0,0,0-.718,1.332q0,1.189,1.62,1.58t3.772.757a9.251,9.251,0,0,1,3.772,1.5A4.292,4.292,0,0,1,268.617,332.335Z" fill="#212121"/>
      <path id="Path_12" data-name="Path 12" d="M287.436,332.335A5,5,0,0,1,285,336.907a11.976,11.976,0,0,1-6.335,1.5,19.414,19.414,0,0,1-4.038-.431,15.569,15.569,0,0,1-3.875-1.373l.738-5.166,4.1.45v2.3a6.426,6.426,0,0,0,1.558.308c.546.041.957.061,1.23.061a6.44,6.44,0,0,0,2.624-.491,1.583,1.583,0,0,0,1.107-1.476q0-1.188-1.681-1.558t-3.895-.738a9.6,9.6,0,0,1-3.895-1.517,4.372,4.372,0,0,1-1.681-3.9q0-3.4,2.645-4.572a13.4,13.4,0,0,1,5.473-1.169A14.825,14.825,0,0,1,286,320.815l.451,4.715-4.1.451-.328-2.583a9.142,9.142,0,0,0-2.911-.451,3.326,3.326,0,0,0-1.742.43,1.446,1.446,0,0,0-.718,1.332q0,1.189,1.619,1.58t3.772.757a9.251,9.251,0,0,1,3.772,1.5A4.292,4.292,0,0,1,287.436,332.335Z" fill="#212121"/>
    </g>
  </g>
</svg>
