<?xml version="1.0" encoding="UTF-8" standalone="no"?>
<svg
   xmlns:dc="http://purl.org/dc/elements/1.1/"
   xmlns:cc="http://creativecommons.org/ns#"
   xmlns:rdf="http://www.w3.org/1999/02/22-rdf-syntax-ns#"
   xmlns:svg="http://www.w3.org/2000/svg"
   xmlns="http://www.w3.org/2000/svg"
   xmlns:sodipodi="http://sodipodi.sourceforge.net/DTD/sodipodi-0.dtd"
   xmlns:inkscape="http://www.inkscape.org/namespaces/inkscape"
   sodipodi:docname="questionmark.svg"
   inkscape:version="1.0 (4035a4f, 2020-05-01)"
   id="svg30"
   version="1.1"
   viewBox="0 0 210 297"
   height="297mm"
   width="210mm">
  <defs
     id="defs24" />
  <sodipodi:namedview
     inkscape:window-maximized="0"
     inkscape:window-y="267"
     inkscape:window-x="393"
     inkscape:window-height="1441"
     inkscape:window-width="2421"
     inkscape:guide-bbox="true"
     showguides="true"
     inkscape:lockguides="true"
     showgrid="false"
     inkscape:document-rotation="0"
     inkscape:current-layer="layer1"
     inkscape:document-units="mm"
     inkscape:cy="293.95792"
     inkscape:cx="783.01326"
     inkscape:zoom="1.4928528"
     inkscape:pageshadow="2"
     inkscape:pageopacity="0.0"
     borderopacity="1.0"
     bordercolor="#666666"
     pagecolor="#ffffff"
     id="base" />
  <metadata
     id="metadata27">
    <rdf:RDF>
      <cc:Work
         rdf:about="">
        <dc:format>image/svg+xml</dc:format>
        <dc:type
           rdf:resource="http://purl.org/dc/dcmitype/StillImage" />
        <dc:title></dc:title>
      </cc:Work>
    </rdf:RDF>
  </metadata>
  <g
     id="layer1"
     inkscape:groupmode="layer"
     inkscape:label="Layer 1">
    <rect
       y="32.159397"
       x="41.366131"
       height="54.908375"
       width="54.908379"
       id="rect38"
       style="fill:#b3b3b3;stroke:#ffffff;stroke-width:0.371672" />
    <circle
       r="25.088343"
       cy="59.613586"
       cx="68.82032"
       id="path32"
       style="fill:#f9f9f9;stroke:#ffffff;stroke-width:0.499999" />
    <g
       style="font-style:normal;font-variant:normal;font-weight:normal;font-stretch:normal;font-size:47.1413px;line-height:1.25;font-family:sans-serif;-inkscape-font-specification:'sans-serif, Normal';font-variant-ligatures:normal;font-variant-caps:normal;font-variant-numeric:normal;font-variant-east-asian:normal;fill:#280b0b;fill-opacity:1;stroke:none;stroke-width:1.23726"
       id="text36"
       transform="matrix(1.0274551,0,0,0.97327853,0.35446674,1.417867)"
       aria-label="?">
      <path
         sodipodi:nodetypes="cccccccccsccscsccccccccccsccccsccc"
         d="m 65.548828,41.654297 c -1.578277,0 -3.234223,0.180497 -4.96875,0.533203 -1.697783,0.333211 -3.127294,0.716677 -4.3125,1.173828 -0.548322,0.211456 -0.910027,0.738489 -0.910156,1.326172 v 4.695312 c -9.6e-5,0.78532 0.636555,1.421971 1.421875,1.421876 h 0.228515 c 0.266661,-1.32e-4 0.527909,-0.07526 0.753907,-0.216797 0.723531,-0.452207 1.808445,-0.952093 3.216797,-1.451172 1.333399,-0.467377 2.740246,-0.703125 4.248046,-0.703125 1.637478,0 2.812794,0.365759 3.689454,1.011718 0.0058,0.0039 0.01169,0.0079 0.01758,0.01172 0.807171,0.576552 1.177734,1.300356 1.177734,2.710938 0,1.141909 -0.214468,1.974078 -0.548828,2.560547 -0.400894,0.687242 -0.987911,1.396758 -1.787109,2.113281 -0.0079,0.0071 -0.01571,0.01423 -0.02344,0.02148 -0.632582,0.593046 -1.497382,1.22073 -2.59375,1.855469 -0.002,0.0013 -0.0039,0.0026 -0.0059,0.0039 -1.145653,0.672116 -2.215051,1.288849 -3.207032,1.853516 -0.444499,0.252851 -0.718955,0.724945 -0.71875,1.236328 v 7.021484 c -9.5e-5,0.78532 0.636556,1.421971 1.421876,1.421875 h 4.11914 c 0.785319,9.5e-5 1.42197,-0.636556 1.421875,-1.421875 v -4.394531 c 1.016354,-0.602529 2.020377,-1.209511 2.949219,-1.845703 1.188348,-0.813938 2.249764,-1.692143 3.179687,-2.638672 l 0.0078,-0.0078 c 0.985029,-1.019594 1.786981,-2.195423 2.388672,-3.501954 0.0013,-0.002 0.0026,-0.0039 0.0039,-0.0059 0.631504,-1.389308 0.931641,-2.944697 0.931641,-4.617187 0,-2.965865 -1.174585,-5.573527 -3.38086,-7.414063 -2.212171,-1.87321 -5.190267,-2.753906 -8.720703,-2.753906 z"
         style="font-style:normal;font-variant:normal;font-weight:normal;font-stretch:normal;font-size:47.1413px;font-family:sans-serif;-inkscape-font-specification:'sans-serif, Normal';font-variant-ligatures:normal;font-variant-caps:normal;font-variant-numeric:normal;font-variant-east-asian:normal;fill:#280b0b;stroke-width:7.1;stroke-miterlimit:4;stroke-dasharray:none"
         id="path40" />
    </g>
    <ellipse
       ry="3.4560509"
       rx="3.6332841"
       cy="76.830658"
       cx="66.728363"
       id="path872"
       style="fill:#000000;stroke:none;stroke-width:0.0533214;stroke-miterlimit:4;stroke-dasharray:none" />
  </g>
</svg>
